# xmcd CD database file
# Copyright (C) 1996 Ti Kan
#
# Track frame offsets:
# 	182
# 	25525
# 	51327
# 	71580
# 	91797
# 	115617
# 	144840
# 	164945
#
# Disc length: 2439 seconds
#
# Revision: 1
# Processed by: cddbd v1.4b41PL1 Copyright (c) Steve Scherf et al.
# Submitted via: DiscPlay 3.4.1
#
DISCID=63098508
DTITLE=View From The Hill - In Time
DYEAR=1900
DGENRE=
TTITLE0=No Conversation
TTITLE1=I'm No Rebel
TTITLE2=Stay And Let Me Love You
TTITLE3=Desperatley
TTITLE4=Boys In Blue
TTITLE5=Lover's Confessions
TTITLE6=On The Corner
TTITLE7=Turn Out The Light
EXTD=
EXTT0=
EXTT1=
EXTT2=
EXTT3=
EXTT4=
EXTT5=
EXTT6=
EXTT7=
PLAYORDER=
